<?xml version="1.0" encoding="UTF-8" standalone="no"?>

<svg width="100mm"
     height="120mm"
     viewBox="0 0 100 120"
     xmlns="http://www.w3.org/2000/svg">

    <g transform="matrix(0.35277777,0,0,-0.35277777,-135.80076,262.23001)">
        <path d="m 852.792,508.405 c -7.536,21.619 -5.464,45.356 -1.482,67.901 3.983,22.545 9.803,45.005 9.496,67.897 -0.5,37.388 -18.42,74.234 -47.68,97.513 -29.26,23.28 -69.317,32.455 -105.736,23.984 -23.031,-5.357 -44.682,-17.336 -68.307,-18.31 -24.259,-1 -47.31,9.72 -71.19,14.103 -56.698,10.41 -117.47,-18.122 -149.196,-66.253 -31.726,-48.13 -34.739,-112.691 -11.521,-165.455 23.22,-52.762 70.823,-93.235 125.337,-111.975 54.515,-18.74 115.184,-16.567 169.871,1.664 26.815,8.939 52.347,21.59 79.542,29.296 27.196,7.706 57.231,10.118 83.079,-1.322 l 37.543,19.826 c -22.885,0.613 -42.221,19.512 -49.756,41.131"
              fill="#f8f9fa"/>
    </g>
</svg>
